<?xml version="1.0" standalone="no"?>
<!DOCTYPE svg PUBLIC "-//W3C//DTD SVG 20010904//EN"
 "http://www.w3.org/TR/2001/REC-SVG-20010904/DTD/svg10.dtd">
<svg version="1.0" xmlns="http://www.w3.org/2000/svg"
 width="700.000000pt" height="700.000000pt" viewBox="0 0 700.000000 700.000000"
 preserveAspectRatio="xMidYMid meet">
<metadata>
Created by potrace 1.11, written by Peter Selinger 2001-2013
</metadata>
<g transform="translate(0.000000,700.000000) scale(0.100000,-0.100000)"
fill="#000000" stroke="none">
<path d="M2920 6459 c-174 -99 -358 -263 -458 -411 -160 -235 -241 -501 -237
-778 3 -172 25 -287 105 -550 18 -58 33 -109 34 -115 1 -5 15 -50 29 -100 15
-49 37 -121 48 -160 11 -38 26 -88 33 -110 8 -22 28 -94 46 -160 18 -66 44
-153 56 -194 13 -40 21 -77 18 -82 -3 -5 -1 -9 4 -9 5 0 14 -21 20 -47 14 -57
13 -53 48 -168 14 -49 28 -97 29 -105 2 -8 4 -15 5 -15 1 0 3 -7 5 -15 2 -8
14 -51 28 -94 l24 -79 -21 -53 c-11 -29 -25 -50 -30 -47 -5 4 -6 1 -2 -5 7
-11 -72 -222 -87 -233 -5 -3 -8 -10 -7 -15 4 -23 -109 -290 -140 -331 -51 -68
-115 -98 -205 -97 -51 0 -81 6 -110 22 -71 37 -124 106 -140 182 -9 41 -10
1443 -2 1457 4 6 4 13 0 16 -3 4 -6 164 -6 357 0 193 -4 353 -8 356 -5 3 -9
14 -9 25 0 36 -57 144 -101 190 -129 135 -326 171 -494 89 -104 -51 -175 -132
-216 -245 -21 -58 -22 -76 -24 -508 l-2 -447 46 5 c74 9 118 24 180 60 143 84
225 241 216 415 -4 82 -20 136 -60 205 -27 46 -109 135 -125 135 -13 0 10 71
32 99 78 100 223 85 284 -29 18 -33 18 -82 20 -1115 1 -786 5 -1094 13 -1130
14 -59 70 -185 82 -185 5 0 9 -6 9 -13 0 -21 94 -108 160 -148 84 -51 157 -72
264 -75 66 -1 90 -6 91 -16 9 -57 -51 -258 -76 -258 -5 0 -9 -6 -9 -12 -1 -40
-157 -160 -224 -172 -15 -3 -33 -9 -39 -15 -13 -10 -16 -755 -3 -768 4 -4 17
-8 29 -9 83 -4 185 -45 238 -95 17 -16 34 -29 38 -29 7 0 59 -72 80 -110 24
-45 41 -102 46 -153 3 -28 7 -52 9 -54 2 -2 704 -5 820 -3 16 0 17 5 11 38
-17 94 -69 162 -155 204 -41 19 -61 21 -223 21 l-178 0 -64 71 c-35 39 -91
100 -125 136 -33 36 -72 88 -86 116 -50 101 -27 223 59 305 44 43 44 43 140
-18 37 -24 71 -43 77 -43 5 0 14 -8 19 -17 6 -10 11 -14 11 -10 0 4 25 -8 55
-28 31 -19 57 -35 59 -35 2 0 63 -36 136 -80 73 -44 136 -80 140 -80 5 0 10
-4 12 -8 7 -19 113 -38 166 -30 116 18 219 109 237 210 4 23 11 35 18 31 5 -3
8 -2 4 3 -3 5 -8 36 -12 68 -7 68 -35 124 -108 218 -29 36 -69 99 -90 139 -39
72 -99 219 -91 219 3 0 0 8 -5 19 -6 10 -13 33 -16 52 -3 19 -7 45 -10 59 -19
104 -24 288 -10 352 5 18 9 44 11 58 5 41 23 112 41 160 3 8 7 20 8 25 7 29
54 128 93 194 83 142 209 279 332 359 30 20 57 39 60 42 7 9 98 52 106 50 4
-1 10 2 13 7 7 11 151 65 151 57 0 -2 8 0 18 5 9 5 35 12 56 15 22 4 42 9 44
11 3 3 12 -1 20 -8 10 -7 13 -7 9 -1 -12 20 65 23 638 24 308 0 577 3 598 5
150 16 290 113 353 245 14 30 28 63 30 73 2 9 7 27 10 40 11 39 11 947 0 954
-5 4 -12 1 -14 -5 -2 -7 -8 -12 -14 -12 -6 0 -37 -18 -68 -39 -32 -22 -61 -37
-66 -33 -4 4 -4 2 0 -5 3 -6 -2 -18 -12 -25 -10 -7 -32 -33 -48 -57 l-29 -45
0 -197 0 -197 -456 0 -456 -1 -7 62 c-10 102 -31 190 -54 234 -6 11 -8 23 -5
27 3 3 2 6 -4 6 -6 0 -13 8 -17 18 -23 68 -136 202 -221 259 -86 58 -120 74
-336 153 -107 39 -201 73 -209 77 -8 3 -19 7 -25 9 -5 1 -44 16 -87 33 -42 17
-81 31 -86 31 -17 0 -99 83 -117 119 -9 19 -18 51 -19 73 0 21 -4 38 -7 38 -3
0 -4 13 -1 30 4 29 5 29 33 14 16 -8 69 -28 117 -45 48 -16 96 -34 107 -38
133 -57 244 -41 326 47 20 20 40 49 46 63 l11 27 -157 56 c-100 36 -171 68
-195 87 -94 78 -101 222 -16 309 44 45 74 59 138 67 37 4 122 -15 156 -35 32
-19 202 -70 208 -64 16 16 17 98 1 151 -12 42 -28 67 -67 105 -47 47 -63 55
-211 108 -738 261 -987 348 -994 348 -3 0 -31 -14 -61 -31z"/>
<path d="M5030 6061 c-45 -57 -64 -121 -57 -192 6 -72 23 -102 156 -277 56
-74 101 -137 101 -141 0 -3 -27 -27 -61 -51 -33 -25 -68 -52 -77 -61 -10 -8
-55 -44 -101 -80 -87 -66 -101 -76 -316 -243 l-127 -98 51 -47 c28 -25 61 -55
74 -66 96 -86 210 -286 241 -426 l11 -49 82 63 c485 369 552 426 596 492 55
83 77 157 77 255 1 146 -16 175 -329 593 -152 202 -279 367 -283 367 -3 0 -20
-18 -38 -39z"/>
<path d="M4458 2755 c-2 -1 -28 -5 -58 -9 -30 -3 -67 -8 -82 -11 -16 -3 -38
-7 -50 -9 -100 -18 -388 -105 -483 -146 -11 -5 -65 -28 -120 -51 -108 -45
-345 -159 -345 -166 0 -2 41 -68 90 -148 50 -79 93 -152 97 -162 4 -10 10 -20
14 -23 3 -3 16 -20 27 -39 19 -31 25 -34 74 -36 66 -3 101 -12 159 -41 81 -40
193 -174 173 -206 -4 -6 -3 -8 4 -4 14 8 32 -78 32 -152 -1 -32 -10 -81 -21
-112 -19 -51 -23 -76 -18 -115 1 -8 5 -15 9 -15 6 0 132 -198 175 -273 43 -75
320 -519 327 -523 5 -3 142 -5 306 -5 163 0 370 1 459 1 l163 0 -6 33 c-10 56
-54 135 -92 165 -71 57 -101 63 -292 65 l-175 1 -90 146 c-49 80 -89 148 -87
152 1 5 -2 8 -6 8 -5 0 -19 19 -32 42 -13 24 -34 58 -47 77 -13 19 -21 36 -18
39 3 3 -4 11 -15 19 -11 8 -20 18 -20 23 0 5 -23 45 -51 89 -29 46 -47 85 -43
92 4 7 3 9 -4 5 -6 -3 -16 3 -22 15 -13 24 -21 14 113 150 50 51 96 92 100 91
5 -1 6 1 3 6 -3 4 11 26 31 48 19 21 67 82 107 134 39 52 73 97 76 100 3 3 13
21 24 40 10 19 36 67 56 105 129 239 114 439 -39 534 -71 43 -158 63 -288 66
-62 1 -114 1 -115 0z"/>
<path d="M2793 995 c0 -8 4 -12 9 -9 5 3 6 10 3 15 -9 13 -12 11 -12 -6z"/>
</g>
</svg>
